# MagicaVoxel @ ephtracy

# material
mtllib Unity game stage.mtl
usemtl palette

# normals
vn -1 0 0
vn 1 0 0
vn 0 0 1
vn 0 0 -1
vn 0 -1 0
vn 0 1 0

# texcoords
vt 0.767578 0.5
vt 0.841797 0.5
vt 0.970703 0.5

# verts
v -10 0 10
v -10 0 -10
v -10 20 10
v -10 20 -10
v -3 1 9
v -3 1 3
v -3 1 -3
v -3 1 -9
v -3 6 3
v -3 6 -3
v -3 7 3
v -3 7 -2
v -3 7 -3
v -3 7 -9
v -3 13 9
v -3 13 3
v -3 14 4
v -3 14 3
v -3 19 4
v -3 19 -2
v 3 1 3
v 3 1 -3
v 3 6 9
v 3 6 4
v 3 6 3
v 3 6 -3
v 3 7 -3
v 3 7 -9
v 3 13 -3
v 3 14 4
v 3 14 3
v 3 19 9
v 3 19 3
v 3 19 -3
v 3 19 -9
v 9 1 9
v 9 1 4
v 9 1 3
v 9 1 -3
v 9 1 -4
v 9 1 -9
v 9 6 9
v 9 6 4
v 9 7 9
v 9 7 4
v 9 7 -3
v 9 7 -4
v 9 13 3
v 9 13 -3
v 9 14 4
v 9 14 -2
v 9 19 9
v 9 19 -2
v 9 19 -3
v 9 19 -9
v -9 1 9
v -9 1 -9
v -9 6 3
v -9 6 -3
v -9 7 3
v -9 7 -2
v -9 12 -3
v -9 12 -9
v -9 13 9
v -9 13 3
v -9 13 -3
v -9 13 -9
v -9 14 9
v -9 14 3
v -9 19 9
v -9 19 -2
v -9 19 -3
v -9 19 -9
v -2 1 9
v -2 1 4
v -2 1 -4
v -2 1 -9
v -2 6 3
v -2 6 -3
v -2 6 -4
v -2 6 -9
v -2 7 -3
v -2 12 -3
v -2 12 -9
v -2 13 3
v -2 13 -3
v -2 13 -9
v -2 14 9
v -2 14 4
v -2 14 -2
v -2 19 4
v -2 19 -2
v 4 1 3
v 4 1 -3
v 4 6 3
v 4 6 -3
v 4 6 -4
v 4 6 -9
v 4 7 9
v 4 7 4
v 4 7 -3
v 4 7 -4
v 4 13 -3
v 4 14 4
v 4 14 3
v 4 19 9
v 4 19 3
v 4 19 -3
v 4 19 -9
v 10 0 10
v 10 0 -10
v 10 20 10
v 10 20 -10
v -10 0 10
v -10 20 10
v 10 0 10
v 10 20 10
v -3 14 4
v -3 19 4
v -2 1 4
v -2 14 4
v -2 19 4
v 3 6 4
v 3 14 4
v 4 1 4
v 4 7 4
v 4 14 4
v 9 1 4
v 9 6 4
v 9 7 4
v 9 14 4
v -9 6 3
v -9 7 3
v -3 6 3
v -3 7 3
v -9 7 -2
v -9 19 -2
v -3 7 -2
v -3 19 -2
v -2 14 -2
v -2 19 -2
v 9 14 -2
v 9 19 -2
v -3 1 -3
v -3 6 -3
v -2 6 -3
v -2 7 -3
v 3 1 -3
v 3 6 -3
v 3 7 -3
v 3 13 -3
v 4 1 -3
v 4 6 -3
v 4 7 -3
v 4 13 -3
v 9 1 -3
v 9 7 -3
v -9 1 -9
v -9 12 -9
v -9 13 -9
v -9 19 -9
v -3 1 -9
v -3 7 -9
v -2 1 -9
v -2 6 -9
v -2 12 -9
v -2 13 -9
v 3 1 -9
v 3 7 -9
v 3 19 -9
v 4 6 -9
v 4 19 -9
v 9 1 -9
v 9 19 -9
v -9 1 9
v -9 13 9
v -9 14 9
v -9 19 9
v -3 1 9
v -3 13 9
v -2 1 9
v -2 14 9
v 3 6 9
v 3 19 9
v 4 1 9
v 4 7 9
v 4 19 9
v 9 1 9
v 9 6 9
v 9 7 9
v 9 19 9
v -9 13 3
v -9 14 3
v -3 1 3
v -3 6 3
v -3 13 3
v -3 14 3
v -2 6 3
v -2 13 3
v 3 1 3
v 3 6 3
v 3 14 3
v 3 19 3
v 4 1 3
v 4 6 3
v 4 14 3
v 4 19 3
v 9 1 3
v 9 13 3
v -9 6 -3
v -9 12 -3
v -9 13 -3
v -9 19 -3
v -3 6 -3
v -3 7 -3
v -2 7 -3
v -2 12 -3
v -2 13 -3
v 3 13 -3
v 3 19 -3
v 4 13 -3
v 4 19 -3
v 9 13 -3
v 9 19 -3
v -2 1 -4
v -2 6 -4
v 3 1 -4
v 4 6 -4
v 4 7 -4
v 9 1 -4
v 9 7 -4
v -10 0 -10
v -10 20 -10
v 10 0 -10
v 10 20 -10
v -10 0 10
v 10 0 10
v 4 0 9
v 9 0 9
v 4 0 4
v 9 0 4
v -2 0 -4
v 3 0 -4
v -2 0 -9
v 3 0 -9
v -10 0 -10
v 10 0 -10
v 3 6 9
v 9 6 9
v 3 6 4
v 9 6 4
v -9 6 3
v -3 6 3
v -2 6 3
v -9 6 -3
v -3 6 -3
v -2 6 -3
v -2 6 -4
v 4 6 -4
v -2 6 -9
v 4 6 -9
v -9 12 -3
v -2 12 -3
v -9 12 -9
v -2 12 -9
v -9 13 9
v -3 13 9
v -9 13 3
v -3 13 3
v -2 13 3
v 9 13 3
v -2 13 -3
v 3 13 -3
v 4 13 -3
v 9 13 -3
v -9 19 9
v 3 19 9
v 4 19 9
v 9 19 9
v -3 19 4
v -2 19 4
v 3 19 3
v 4 19 3
v -9 19 -2
v -3 19 -2
v -2 19 -2
v 9 19 -2
v -9 19 -3
v 3 19 -3
v 4 19 -3
v 9 19 -3
v -9 19 -9
v 3 19 -9
v 4 19 -9
v 9 19 -9
v -9 1 9
v -3 1 9
v -2 1 9
v 4 1 9
v 9 1 9
v -2 1 4
v 4 1 4
v 9 1 4
v -3 1 3
v 3 1 3
v 4 1 3
v 9 1 3
v -3 1 -3
v 3 1 -3
v 4 1 -3
v 9 1 -3
v -2 1 -4
v 3 1 -4
v 9 1 -4
v -9 1 -9
v -3 1 -9
v -2 1 -9
v 3 1 -9
v 9 1 -9
v 3 6 3
v 4 6 3
v 3 6 -3
v 4 6 -3
v 4 7 9
v 9 7 9
v 4 7 4
v 9 7 4
v -9 7 3
v -3 7 3
v -9 7 -2
v -3 7 -2
v -3 7 -3
v -2 7 -3
v 3 7 -3
v 4 7 -3
v 9 7 -3
v 4 7 -4
v 9 7 -4
v -3 7 -9
v 3 7 -9
v -9 13 -3
v -2 13 -3
v -9 13 -9
v -2 13 -9
v -9 14 9
v -2 14 9
v -3 14 4
v -2 14 4
v 3 14 4
v 4 14 4
v 9 14 4
v -9 14 3
v -3 14 3
v 3 14 3
v 4 14 3
v -2 14 -2
v 9 14 -2
v -10 20 10
v 10 20 10
v -10 20 -10
v 10 20 -10

# faces
f 3/3/1 2/3/1 1/3/1
f 4/3/1 2/3/1 3/3/1
f 9/3/1 6/3/1 5/3/1
f 10/3/1 8/3/1 7/3/1
f 11/3/1 9/3/1 5/3/1
f 13/3/1 8/3/1 10/3/1
f 14/3/1 8/3/1 13/3/1
f 15/3/1 12/3/1 11/3/1
f 15/3/1 11/3/1 5/3/1
f 16/3/1 12/3/1 15/3/1
f 18/3/1 12/3/1 16/3/1
f 19/3/1 18/3/1 17/3/1
f 20/3/1 12/3/1 18/3/1
f 20/3/1 18/3/1 19/3/1
f 25/3/1 22/3/1 21/3/1
f 26/3/1 22/3/1 25/3/1
f 29/3/1 28/3/1 27/3/1
f 30/3/1 24/3/1 23/3/1
f 32/3/1 30/3/1 23/3/1
f 32/3/1 31/3/1 30/3/1
f 33/3/1 31/3/1 32/3/1
f 34/3/1 28/3/1 29/3/1
f 35/3/1 28/3/1 34/3/1
f 42/3/1 37/3/1 36/3/1
f 43/3/1 37/3/1 42/3/1
f 46/3/1 39/3/1 38/3/1
f 47/3/1 41/3/1 40/3/1
f 48/3/1 46/3/1 38/3/1
f 48/3/1 47/3/1 46/3/1
f 49/3/1 47/3/1 48/3/1
f 50/3/1 45/3/1 44/3/1
f 52/3/1 50/3/1 44/3/1
f 52/3/1 51/3/1 50/3/1
f 53/3/1 51/3/1 52/3/1
f 54/3/1 47/3/1 49/3/1
f 55/3/1 41/3/1 47/3/1
f 55/3/1 47/3/1 54/3/1
f 56/3/2 57/3/2 58/3/2
f 58/3/2 57/3/2 59/3/2
f 56/3/2 58/3/2 60/3/2
f 59/3/2 57/3/2 62/3/2
f 62/3/2 57/3/2 63/3/2
f 60/3/2 61/3/2 64/3/2
f 56/3/2 60/3/2 64/3/2
f 64/3/2 61/3/2 65/3/2
f 65/3/2 61/3/2 69/3/2
f 68/3/2 69/3/2 70/3/2
f 69/3/2 61/3/2 71/3/2
f 70/3/2 69/3/2 71/3/2
f 66/3/2 67/3/2 72/3/2
f 72/3/2 67/3/2 73/3/2
f 76/3/2 77/3/2 80/3/2
f 80/3/2 77/3/2 81/3/2
f 78/3/2 79/3/2 82/3/2
f 78/3/2 82/3/2 83/3/2
f 78/3/2 83/3/2 85/3/2
f 83/3/2 84/3/2 85/3/2
f 85/3/2 84/3/2 86/3/2
f 86/3/2 84/3/2 87/3/2
f 74/3/2 75/3/2 88/3/2
f 88/3/2 75/3/2 89/3/2
f 89/3/2 90/3/2 91/3/2
f 91/3/2 90/3/2 92/3/2
f 93/3/2 94/3/2 95/3/2
f 95/3/2 94/3/2 96/3/2
f 97/3/2 98/3/2 102/3/2
f 101/3/2 102/3/2 103/3/2
f 99/3/2 100/3/2 104/3/2
f 99/3/2 104/3/2 106/3/2
f 104/3/2 105/3/2 106/3/2
f 106/3/2 105/3/2 107/3/2
f 103/3/2 102/3/2 108/3/2
f 102/3/2 98/3/2 109/3/2
f 108/3/2 102/3/2 109/3/2
f 110/3/2 111/3/2 112/3/2
f 112/3/2 111/3/2 113/3/2
f 116/3/3 115/3/3 114/3/3
f 117/3/3 115/3/3 116/3/3
f 121/3/3 119/3/3 118/3/3
f 122/3/3 119/3/3 121/3/3
f 123/3/3 121/3/3 120/3/3
f 124/3/3 121/3/3 123/3/3
f 125/3/3 123/3/3 120/3/3
f 128/3/3 123/3/3 125/3/3
f 129/3/3 123/3/3 128/3/3
f 130/3/3 127/3/3 126/3/3
f 131/3/3 127/3/3 130/3/3
f 134/3/3 133/3/3 132/3/3
f 135/3/3 133/3/3 134/3/3
f 138/3/3 137/3/3 136/3/3
f 139/3/3 137/3/3 138/3/3
f 142/3/3 141/3/3 140/3/3
f 143/3/3 141/3/3 142/3/3
f 146/3/3 145/3/3 144/3/3
f 148/3/3 146/3/3 144/3/3
f 148/3/3 147/3/3 146/3/3
f 149/3/3 147/3/3 148/3/3
f 150/3/3 147/3/3 149/3/3
f 153/3/3 151/3/3 150/3/3
f 153/3/3 150/3/3 149/3/3
f 154/3/3 151/3/3 153/3/3
f 155/3/3 151/3/3 154/3/3
f 156/3/3 153/3/3 152/3/3
f 156/3/3 154/3/3 153/3/3
f 157/3/3 154/3/3 156/3/3
f 162/3/3 159/3/3 158/3/3
f 163/3/3 159/3/3 162/3/3
f 166/3/3 159/3/3 163/3/3
f 167/3/3 161/3/3 160/3/3
f 168/3/3 165/3/3 164/3/3
f 169/3/3 166/3/3 163/3/3
f 169/3/3 167/3/3 166/3/3
f 170/3/3 161/3/3 167/3/3
f 170/3/3 167/3/3 169/3/3
f 171/3/3 165/3/3 168/3/3
f 173/3/3 171/3/3 168/3/3
f 173/3/3 172/3/3 171/3/3
f 174/3/3 172/3/3 173/3/3
f 175/3/4 176/3/4 179/3/4
f 179/3/4 176/3/4 180/3/4
f 177/3/4 178/3/4 182/3/4
f 181/3/4 182/3/4 183/3/4
f 182/3/4 178/3/4 184/3/4
f 183/3/4 182/3/4 184/3/4
f 181/3/4 183/3/4 185/3/4
f 185/3/4 183/3/4 188/3/4
f 188/3/4 183/3/4 189/3/4
f 186/3/4 187/3/4 190/3/4
f 190/3/4 187/3/4 191/3/4
f 192/3/4 193/3/4 196/3/4
f 196/3/4 193/3/4 197/3/4
f 194/3/4 195/3/4 198/3/4
f 194/3/4 198/3/4 200/3/4
f 198/3/4 199/3/4 200/3/4
f 200/3/4 199/3/4 201/3/4
f 201/3/4 199/3/4 205/3/4
f 202/3/4 203/3/4 206/3/4
f 206/3/4 203/3/4 207/3/4
f 204/3/4 205/3/4 208/3/4
f 205/3/4 199/3/4 209/3/4
f 208/3/4 205/3/4 209/3/4
f 210/3/4 211/3/4 214/3/4
f 214/3/4 211/3/4 215/3/4
f 215/3/4 211/3/4 216/3/4
f 216/3/4 211/3/4 217/3/4
f 212/3/4 213/3/4 218/3/4
f 218/3/4 213/3/4 219/3/4
f 219/3/4 213/3/4 220/3/4
f 221/3/4 222/3/4 223/3/4
f 223/3/4 222/3/4 224/3/4
f 225/3/4 226/3/4 227/3/4
f 227/3/4 226/3/4 228/3/4
f 227/3/4 228/3/4 230/3/4
f 228/3/4 229/3/4 230/3/4
f 230/3/4 229/3/4 231/3/4
f 232/3/4 233/3/4 234/3/4
f 234/3/4 233/3/4 235/3/4
f 238/3/5 237/3/5 236/3/5
f 239/3/5 237/3/5 238/3/5
f 240/3/5 238/3/5 236/3/5
f 240/2/5 239/2/5 238/2/5
f 241/3/5 237/3/5 239/3/5
f 241/2/5 239/2/5 240/2/5
f 242/3/5 240/3/5 236/3/5
f 242/3/5 241/3/5 240/3/5
f 243/3/5 241/3/5 242/3/5
f 244/3/5 242/3/5 236/3/5
f 244/1/5 243/1/5 242/1/5
f 245/3/5 241/3/5 243/3/5
f 245/1/5 243/1/5 244/1/5
f 246/3/5 244/3/5 236/3/5
f 246/3/5 245/3/5 244/3/5
f 247/3/5 237/3/5 241/3/5
f 247/3/5 245/3/5 246/3/5
f 247/3/5 241/3/5 245/3/5
f 250/3/5 249/3/5 248/3/5
f 251/3/5 249/3/5 250/3/5
f 255/3/5 253/3/5 252/3/5
f 255/3/5 254/3/5 253/3/5
f 256/3/5 254/3/5 255/3/5
f 257/3/5 254/3/5 256/3/5
f 260/3/5 259/3/5 258/3/5
f 261/3/5 259/3/5 260/3/5
f 264/3/5 263/3/5 262/3/5
f 265/3/5 263/3/5 264/3/5
f 268/3/5 267/3/5 266/3/5
f 269/3/5 267/3/5 268/3/5
f 272/3/5 271/3/5 270/3/5
f 273/3/5 271/3/5 272/3/5
f 274/3/5 271/3/5 273/3/5
f 275/3/5 271/3/5 274/3/5
f 280/3/5 277/3/5 276/3/5
f 281/3/5 277/3/5 280/3/5
f 282/3/5 277/3/5 281/3/5
f 283/3/5 279/3/5 278/3/5
f 284/3/5 280/3/5 276/3/5
f 285/3/5 280/3/5 284/3/5
f 286/3/5 282/3/5 281/3/5
f 286/3/5 283/3/5 282/3/5
f 287/3/5 279/3/5 283/3/5
f 287/3/5 283/3/5 286/3/5
f 292/3/5 289/3/5 288/3/5
f 293/3/5 289/3/5 292/3/5
f 294/3/5 291/3/5 290/3/5
f 295/3/5 291/3/5 294/3/5
f 298/3/6 299/3/6 301/3/6
f 299/2/6 300/2/6 302/2/6
f 301/3/6 299/3/6 302/3/6
f 302/2/6 300/2/6 303/2/6
f 296/3/6 297/3/6 304/3/6
f 296/3/6 304/3/6 308/3/6
f 304/3/6 305/3/6 308/3/6
f 308/3/6 305/3/6 309/3/6
f 306/3/6 307/3/6 310/3/6
f 310/3/6 307/3/6 311/3/6
f 296/3/6 308/3/6 315/3/6
f 315/3/6 308/3/6 316/3/6
f 312/1/6 313/1/6 317/1/6
f 313/3/6 314/3/6 318/3/6
f 317/1/6 313/1/6 318/1/6
f 318/3/6 314/3/6 319/3/6
f 320/3/6 321/3/6 322/3/6
f 322/3/6 321/3/6 323/3/6
f 324/3/6 325/3/6 326/3/6
f 326/3/6 325/3/6 327/3/6
f 328/3/6 329/3/6 330/3/6
f 330/3/6 329/3/6 331/3/6
f 335/3/6 336/3/6 337/3/6
f 337/3/6 336/3/6 338/3/6
f 332/3/6 333/3/6 339/3/6
f 333/3/6 334/3/6 339/3/6
f 339/3/6 334/3/6 340/3/6
f 341/3/6 342/3/6 343/3/6
f 343/3/6 342/3/6 344/3/6
f 345/3/6 346/3/6 347/3/6
f 347/3/6 346/3/6 348/3/6
f 345/3/6 347/3/6 352/3/6
f 352/3/6 347/3/6 353/3/6
f 348/3/6 349/3/6 354/3/6
f 350/3/6 351/3/6 355/3/6
f 348/3/6 354/3/6 356/3/6
f 354/3/6 355/3/6 356/3/6
f 355/3/6 351/3/6 357/3/6
f 356/3/6 355/3/6 357/3/6
f 358/3/6 359/3/6 360/3/6
f 360/3/6 359/3/6 361/3/6
